<?xml version="1.0" encoding="UTF-8" standalone="no"?>
<!DOCTYPE svg PUBLIC "-//W3C//DTD SVG 1.1//EN" "http://www.w3.org/Graphics/SVG/1.1/DTD/svg11.dtd">
<svg width="100%" height="100%" viewBox="0 0 1000 400" version="1.1" xmlns="http://www.w3.org/2000/svg" xmlns:xlink="http://www.w3.org/1999/xlink" xml:space="preserve" style="fill-rule:evenodd;clip-rule:evenodd;stroke-linejoin:round;stroke-miterlimit:1.41421;">
    <g transform="matrix(1,0,0,1,114.371,-228.871)">
        <g>
            <g>
                <g transform="matrix(0.330641,0,0,0.330641,-92.7647,296.615)">
                    <path d="M400.003,72.068C506.807,72.068 519.454,72.476 561.636,74.4C600.633,76.181 621.814,82.698 635.91,88.174C654.583,95.431 667.906,104.1 681.903,118.097C695.902,132.094 704.572,145.414 711.826,164.087C717.303,178.184 723.819,199.364 725.597,238.362C727.521,280.543 727.929,293.191 727.929,399.998C727.929,506.805 727.521,519.455 725.597,561.634C723.819,600.634 717.302,621.815 711.826,635.908C704.572,654.577 695.902,667.901 681.903,681.901C667.906,695.897 654.583,704.567 635.91,711.824C621.813,717.3 600.633,723.817 561.636,725.595C519.461,727.522 506.816,727.926 400.003,727.926C293.188,727.926 280.543,727.522 238.367,725.595C199.37,723.817 178.189,717.299 164.092,711.824C145.423,704.567 132.096,695.897 118.099,681.901C104.103,667.901 95.436,654.577 88.179,635.908C82.703,621.814 76.183,600.634 74.405,561.634C72.481,519.455 72.073,506.805 72.073,399.998C72.073,293.191 72.481,280.543 74.405,238.362C76.183,199.364 82.703,178.184 88.179,164.087C95.436,145.415 104.103,132.094 118.099,118.097C132.096,104.1 145.423,95.431 164.092,88.174C178.189,82.698 199.37,76.18 238.367,74.4C280.549,72.476 293.196,72.068 400.003,72.068M400.003,-0.003C291.367,-0.003 277.745,0.456 235.083,2.405C192.506,4.347 163.429,11.111 137.987,20.998C111.683,31.22 89.376,44.896 67.14,67.133C44.903,89.37 31.223,111.68 21.004,137.98C11.111,163.429 4.35,192.502 2.408,235.08C0.46,277.746 0.003,291.365 0.003,399.997C0.003,508.633 0.46,522.252 2.408,564.914C4.35,607.494 11.111,636.568 21.004,662.014C31.223,688.317 44.903,710.624 67.14,732.864C89.376,755.101 111.683,768.778 137.987,779C163.429,788.887 192.506,795.647 235.083,797.593C277.746,799.538 291.368,800.001 400.003,800.001C508.636,800.001 522.258,799.538 564.92,797.593C607.498,795.648 636.574,788.887 662.017,779C688.321,768.778 710.627,755.102 732.868,732.864C755.104,710.625 768.781,688.317 779.003,662.014C788.894,636.569 795.654,607.494 797.597,564.914C799.544,522.252 800.001,508.633 800.001,399.997C800.001,291.364 799.544,277.745 797.597,235.08C795.655,192.503 788.894,163.429 779.003,137.981C768.781,111.681 755.105,89.371 732.868,67.134C710.628,44.897 688.321,31.22 662.017,20.999C636.575,11.112 607.498,4.348 564.92,2.406C522.258,0.457 508.636,-0.003 400.003,-0.003" style="fill-rule:nonzero;"/>
                    <path d="M400.003,194.594C286.561,194.594 194.597,286.555 194.597,399.997C194.597,513.439 286.561,605.4 400.003,605.4C513.442,605.4 605.406,513.439 605.406,399.997C605.406,286.555 513.442,194.594 400.003,194.594M400.003,533.329C326.364,533.329 266.668,473.636 266.668,399.997C266.668,326.358 326.364,266.664 400.003,266.664C473.642,266.664 533.335,326.358 533.335,399.997C533.335,473.636 473.642,533.329 400.003,533.329" style="fill-rule:nonzero;"/>
                    <path d="M661.523,186.479C661.523,212.986 640.035,234.477 613.521,234.477C587.013,234.477 565.523,212.986 565.523,186.479C565.523,159.965 587.013,138.477 613.521,138.477C640.035,138.477 661.523,159.965 661.523,186.479" style="fill-rule:nonzero;"/>
                </g>
                <g transform="matrix(1,0,0,1,269.931,344.6)">
                    <path d="M30.577,0.586C18.417,5.68 5.049,20.053 0.827,38.108C-4.52,60.977 17.731,70.648 19.556,67.482C21.704,63.755 15.569,62.495 14.306,50.629C12.674,35.303 19.799,18.178 28.767,10.664C30.434,9.268 30.354,11.211 30.354,14.805C30.354,21.233 29.999,78.927 29.999,90.969C29.999,107.262 29.326,112.407 28.117,117.49C26.892,122.642 24.924,126.123 26.415,127.465C28.082,128.965 35.198,125.397 39.318,119.647C44.258,112.751 45.987,104.469 46.298,95.475C46.673,84.633 46.657,67.429 46.673,57.616C46.688,48.616 46.824,22.262 46.515,6.419C46.44,2.533 35.663,-1.544 30.577,0.586ZM591.424,86.18C589.66,86.18 588.856,87.998 588.19,91.059C585.879,101.702 583.452,104.104 580.321,104.104C576.823,104.104 573.679,98.834 572.872,88.286C572.237,79.992 572.339,64.721 573.151,49.532C573.317,46.411 572.456,43.323 564.085,40.282C560.483,38.973 555.247,37.048 552.64,43.341C545.275,61.12 542.392,75.236 541.714,80.968C541.679,81.265 541.316,81.325 541.251,80.632C540.819,76.04 539.853,67.694 539.733,50.161C539.71,46.74 538.985,43.828 535.209,41.444C532.759,39.896 525.319,37.161 522.64,40.416C520.32,43.078 517.631,50.242 514.838,58.734C512.568,65.635 510.987,70.304 510.987,70.304C510.987,70.304 511.016,51.681 511.044,44.617C511.056,41.952 509.228,41.063 508.677,40.903C506.197,40.183 501.308,38.98 499.234,38.98C496.673,38.98 496.046,40.411 496.046,42.496C496.046,42.769 495.642,67.015 495.642,83.969C495.642,84.705 495.643,85.509 495.646,86.363C494.23,94.155 489.638,104.733 484.644,104.733C479.644,104.733 477.286,100.311 477.286,80.099C477.286,68.309 477.64,63.181 477.813,54.654C477.915,49.742 478.11,45.969 478.098,45.114C478.061,42.489 473.522,41.166 471.41,40.676C469.288,40.184 467.444,39.992 466.004,40.074C463.966,40.189 462.525,41.526 462.525,43.365C462.525,44.351 462.536,46.225 462.536,46.225C459.911,42.1 455.688,39.229 452.88,38.397C445.314,36.151 437.419,38.142 431.464,46.474C426.731,53.095 423.878,60.595 422.755,71.369C421.934,79.245 422.202,87.233 423.661,93.988C421.898,101.61 418.625,104.733 415.041,104.733C409.838,104.733 406.066,96.241 406.504,81.553C406.793,71.892 408.726,65.113 410.839,55.305C411.74,51.123 411.008,48.935 409.172,46.837C407.488,44.912 403.901,43.93 398.742,45.139C395.068,46 389.814,46.928 385.009,47.64C385.009,47.64 385.299,46.483 385.537,44.443C386.787,33.745 375.162,34.613 371.453,38.03C369.239,40.07 367.732,42.476 367.16,46.802C366.253,53.666 371.851,56.905 371.851,56.905C370.014,65.315 365.511,76.299 360.863,84.241C358.373,88.496 356.467,91.649 354.009,95.001C354,93.755 353.993,92.509 353.989,91.263C353.932,73.584 354.168,59.67 354.271,54.655C354.373,49.743 354.57,46.071 354.558,45.216C354.531,43.296 353.41,42.57 351.078,41.653C349.016,40.841 346.578,40.279 344.049,40.083C340.858,39.835 338.934,41.527 338.985,43.529C338.995,43.907 338.995,46.228 338.995,46.228C336.37,42.103 332.147,39.232 329.339,38.4C321.773,36.154 313.878,38.145 307.923,46.477C303.191,53.098 300.092,62.389 299.214,71.289C298.396,79.584 298.547,86.633 299.662,92.571C298.459,98.517 295,104.735 291.089,104.735C286.089,104.735 283.244,100.313 283.244,80.101C283.244,68.311 283.598,63.184 283.771,54.656C283.873,49.744 284.068,45.971 284.056,45.116C284.019,42.491 279.48,41.168 277.368,40.678C275.158,40.166 273.25,39.979 271.785,40.087C269.851,40.231 268.493,41.961 268.493,43.252L268.493,46.228C265.868,42.103 261.645,39.232 258.837,38.4C251.271,36.154 243.42,38.177 237.421,46.477C233.509,51.889 230.342,57.889 228.712,71.171C228.241,75.009 228.033,78.604 228.06,81.963C226.5,91.503 219.611,102.498 213.974,102.498C210.676,102.498 207.535,96.102 207.535,82.469C207.535,64.309 208.66,38.454 208.849,35.962C208.849,35.962 215.97,35.841 217.349,35.825C220.902,35.786 224.119,35.87 228.849,35.628C231.222,35.507 233.508,26.991 231.059,25.937C229.95,25.46 222.104,25.042 218.995,24.976C216.38,24.917 209.099,24.378 209.099,24.378C209.099,24.378 209.752,7.216 209.905,5.403C210.034,3.891 208.079,3.114 206.958,2.641C204.231,1.489 201.793,0.936 198.902,0.34C194.908,-0.484 193.095,0.322 192.742,3.694C192.209,8.809 191.933,23.795 191.933,23.795C189.001,23.795 178.99,23.222 176.058,23.222C173.333,23.222 170.394,34.937 174.16,35.081C178.493,35.249 186.044,35.394 191.05,35.545C191.05,35.545 190.827,61.827 190.827,69.941C190.827,70.804 190.83,71.635 190.836,72.442C188.081,86.802 178.376,94.559 178.376,94.559C180.46,85.059 176.203,77.925 168.536,71.886C165.71,69.66 160.134,65.448 153.894,60.831C153.894,60.831 157.508,57.269 160.713,50.102C162.984,45.026 163.082,39.217 157.507,37.936C148.298,35.819 140.703,42.582 138.438,49.803C136.683,55.398 137.619,59.548 141.057,63.861C141.308,64.176 141.58,64.497 141.861,64.821C139.782,68.828 136.926,74.223 134.507,78.407C127.792,90.023 122.721,99.211 118.887,99.211C115.823,99.211 115.865,89.883 115.865,81.149C115.865,73.62 116.421,62.3 116.865,50.58C117.012,46.704 115.073,44.496 111.824,42.496C109.85,41.281 105.637,38.892 103.198,38.892C99.546,38.892 89.009,39.389 79.053,68.188C77.798,71.818 75.333,78.432 75.333,78.432L75.545,43.8C75.545,42.988 75.112,42.202 74.122,41.665C72.444,40.755 67.963,38.892 63.979,38.892C62.081,38.892 61.133,39.775 61.133,41.535L60.785,95.718C60.785,99.835 60.892,104.638 61.3,106.738C61.705,108.842 62.362,110.552 63.176,111.57C63.988,112.586 64.928,113.361 66.478,113.681C67.92,113.978 75.817,114.992 76.228,111.974C76.72,108.357 76.738,104.445 80.885,89.855C87.341,67.14 95.758,56.057 99.716,52.121C100.407,51.433 101.197,51.392 101.159,52.518C100.991,57.497 100.397,69.942 99.996,80.514C98.924,108.806 104.071,114.05 111.426,114.05C117.053,114.05 124.985,108.458 133.488,94.306C138.788,85.486 143.935,76.838 147.634,70.605C150.211,72.991 153.102,75.558 155.993,78.301C162.709,84.675 164.914,90.732 163.451,96.478C162.332,100.871 158.118,105.398 150.618,100.998C148.432,99.715 147.498,98.723 145.301,97.275C144.12,96.498 142.318,96.265 141.237,97.08C138.428,99.197 136.822,101.891 135.905,105.225C135.013,108.469 138.262,110.184 141.63,111.684C144.53,112.975 150.763,114.145 154.738,114.278C170.225,114.796 182.633,106.8 191.269,86.174C192.816,103.987 199.395,114.067 210.828,114.067C218.471,114.067 226.134,104.188 229.485,94.469C230.447,98.431 231.871,101.875 233.71,104.789C242.519,118.746 259.608,115.742 268.192,103.891C270.845,100.229 271.25,98.912 271.25,98.912C272.502,110.103 281.514,114.014 286.674,114.014C292.453,114.014 298.42,111.282 302.602,101.867C303.081,102.872 303.619,103.848 304.211,104.79C313.02,118.747 330.109,115.743 338.693,103.892C339.097,103.335 339.449,102.831 339.755,102.378L340.007,109.73L332.105,116.978C318.858,129.119 308.794,138.328 308.054,149.052C307.113,162.726 318.196,167.808 326.593,168.474C335.495,169.181 343.132,164.259 347.82,157.37C351.945,151.308 354.644,138.259 354.447,125.37C354.368,120.209 354.238,113.647 354.135,106.613C358.785,101.213 364.025,94.387 368.848,86.399C374.106,77.692 379.74,66.001 382.624,56.902C382.624,56.902 387.519,56.944 392.743,56.602C394.414,56.493 394.893,56.833 394.585,58.059C394.212,59.538 387.985,83.557 393.668,99.557C397.558,110.51 406.327,114.034 411.526,114.034C417.612,114.034 423.433,109.438 426.553,102.613C426.929,103.374 427.323,104.11 427.751,104.79C436.56,118.747 453.589,115.726 462.233,103.892C464.183,101.222 465.291,98.913 465.291,98.913C467.146,110.495 476.153,114.073 481.312,114.073C486.686,114.073 491.786,111.87 495.923,102.079C496.096,106.391 496.368,109.915 496.798,111.026C497.06,111.706 498.587,112.559 499.698,112.971C504.614,114.793 509.628,113.932 511.483,113.557C512.768,113.297 513.77,112.266 513.907,109.604C514.266,102.614 514.046,90.87 516.165,82.141C519.722,67.493 523.04,61.81 524.614,58.998C525.495,57.422 526.489,57.162 526.525,58.83C526.598,62.205 526.766,72.116 528.145,85.432C529.157,95.225 530.508,101.014 531.547,102.846C534.512,108.084 538.174,108.332 541.156,108.332C543.052,108.332 547.02,107.809 546.665,104.475C546.492,102.85 546.795,92.807 550.302,78.376C552.592,68.952 556.41,60.438 557.787,57.324C558.295,56.176 558.531,57.081 558.523,57.257C558.233,63.747 557.582,84.975 560.226,96.585C563.81,112.314 574.177,114.073 577.79,114.073C585.503,114.073 591.811,108.206 593.936,92.768C594.453,89.049 593.695,86.18 591.424,86.18L591.424,86.18ZM268.335,76.636C267.893,84.806 266.299,91.636 263.741,96.597C259.113,105.576 249.956,108.423 245.919,95.449C243.008,86.094 243.999,73.337 245.21,66.447C247.007,56.22 251.507,48.97 258.532,49.657C265.748,50.363 269.256,59.636 268.335,76.636L268.335,76.636ZM338.836,76.754C338.424,84.469 336.424,92.219 334.242,96.598C329.738,105.639 320.322,108.465 316.42,95.45C313.752,86.557 314.391,75.048 315.711,67.797C317.424,58.387 321.576,49.658 329.033,49.658C336.283,49.657 339.858,57.611 338.836,76.754L338.836,76.754ZM340.676,129.389C340.578,143.463 338.364,155.803 333.614,159.387C326.877,164.469 317.822,160.657 319.697,150.387C321.356,141.299 329.202,132.018 340.696,120.678C340.695,120.678 340.719,123.264 340.676,129.389L340.676,129.389ZM462.378,76.836C461.986,85.306 460.111,91.927 457.784,96.597C453.279,105.638 443.93,108.445 439.962,95.449C437.799,88.365 437.698,76.533 439.253,66.647C440.836,56.577 445.256,48.97 452.575,49.657C459.794,50.334 463.173,59.636 462.378,76.836L462.378,76.836Z" style="fill-rule:nonzero;"/>
                </g>
            </g>
        </g>
    </g>
</svg>
